<svg xmlns="http://www.w3.org/2000/svg" width="480" height="600" viewBox="0 0 480 600"><rect width="480" height="600" fill="#E8DCC0"/><defs><clipPath id="m"><ellipse cx="240" cy="270" rx="133" ry="162"/></clipPath><clipPath id="hd"><ellipse cx="240" cy="300" rx="62" ry="72"/></clipPath><clipPath id="ct"><path d="M120 432 Q240 350 360 432 Z"/></clipPath></defs><g clip-path="url(#m)"><rect x="107" y="108" width="266" height="324" fill="#ECE0C4"/><line x1="107" y1="360" x2="373" y2="360" stroke="#C9B68C" stroke-width="0.8"/><line x1="107" y1="370" x2="373" y2="370" stroke="#C9B68C" stroke-width="0.8"/><line x1="107" y1="380" x2="373" y2="380" stroke="#C9B68C" stroke-width="0.8"/><line x1="107" y1="390" x2="373" y2="390" stroke="#C9B68C" stroke-width="0.8"/><line x1="107" y1="400" x2="373" y2="400" stroke="#C9B68C" stroke-width="0.8"/><line x1="107" y1="410" x2="373" y2="410" stroke="#C9B68C" stroke-width="0.8"/><line x1="107" y1="420" x2="373" y2="420" stroke="#C9B68C" stroke-width="0.8"/><line x1="107" y1="430" x2="373" y2="430" stroke="#C9B68C" stroke-width="0.8"/><path d="M120 432 Q240 350 360 432 Z" fill="#5A4A35" stroke="#241E17" stroke-width="3"/><g clip-path="url(#ct)" stroke="#2A2218" stroke-width="0.8" opacity="0.55"><line x1="150" y1="356" x2="104" y2="434"/><line x1="159" y1="356" x2="113" y2="434"/><line x1="168" y1="356" x2="122" y2="434"/><line x1="177" y1="356" x2="131" y2="434"/><line x1="186" y1="356" x2="140" y2="434"/><line x1="195" y1="356" x2="149" y2="434"/><line x1="204" y1="356" x2="158" y2="434"/><line x1="213" y1="356" x2="167" y2="434"/><line x1="222" y1="356" x2="176" y2="434"/><line x1="231" y1="356" x2="185" y2="434"/><line x1="240" y1="356" x2="194" y2="434"/><line x1="249" y1="356" x2="203" y2="434"/><line x1="258" y1="356" x2="212" y2="434"/><line x1="267" y1="356" x2="221" y2="434"/><line x1="276" y1="356" x2="230" y2="434"/><line x1="285" y1="356" x2="239" y2="434"/><line x1="294" y1="356" x2="248" y2="434"/><line x1="303" y1="356" x2="257" y2="434"/><line x1="312" y1="356" x2="266" y2="434"/><line x1="321" y1="356" x2="275" y2="434"/><line x1="330" y1="356" x2="284" y2="434"/><line x1="339" y1="356" x2="293" y2="434"/><line x1="348" y1="356" x2="302" y2="434"/><line x1="357" y1="356" x2="311" y2="434"/><line x1="366" y1="356" x2="320" y2="434"/><line x1="375" y1="356" x2="329" y2="434"/><line x1="150" y1="380" x2="190" y2="434"/><line x1="166" y1="380" x2="206" y2="434"/><line x1="182" y1="380" x2="222" y2="434"/><line x1="198" y1="380" x2="238" y2="434"/><line x1="214" y1="380" x2="254" y2="434"/><line x1="230" y1="380" x2="270" y2="434"/><line x1="246" y1="380" x2="286" y2="434"/><line x1="262" y1="380" x2="302" y2="434"/><line x1="278" y1="380" x2="318" y2="434"/><line x1="294" y1="380" x2="334" y2="434"/><line x1="310" y1="380" x2="350" y2="434"/><line x1="326" y1="380" x2="366" y2="434"/><line x1="342" y1="380" x2="382" y2="434"/><line x1="358" y1="380" x2="398" y2="434"/><line x1="374" y1="380" x2="414" y2="434"/></g><path d="M200 396 Q240 430 280 396 L280 432 L200 432 Z" fill="#D8C9A6" stroke="#241E17" stroke-width="2"/><path d="M200 382 Q210 400 220 382 Q230 400 240 382 Q250 400 260 382 Q270 400 280 382" fill="none" stroke="#241E17" stroke-width="2"/><rect x="222" y="358" width="36" height="30" fill="#E0C7A2"/><circle cx="184" cy="249" r="13" fill="#3A2A22" stroke="#241E17" stroke-width="1.5"/><circle cx="200" cy="247" r="13" fill="#3A2A22" stroke="#241E17" stroke-width="1.5"/><circle cx="216" cy="245" r="13" fill="#3A2A22" stroke="#241E17" stroke-width="1.5"/><circle cx="232" cy="243" r="13" fill="#3A2A22" stroke="#241E17" stroke-width="1.5"/><circle cx="248" cy="243" r="13" fill="#3A2A22" stroke="#241E17" stroke-width="1.5"/><circle cx="264" cy="245" r="13" fill="#3A2A22" stroke="#241E17" stroke-width="1.5"/><circle cx="280" cy="247" r="13" fill="#3A2A22" stroke="#241E17" stroke-width="1.5"/><circle cx="296" cy="249" r="13" fill="#3A2A22" stroke="#241E17" stroke-width="1.5"/><rect x="182" y="242" width="116" height="26" fill="#3A2A22"/><ellipse cx="240" cy="300" rx="62" ry="72" fill="#E0C7A2" stroke="#241E17" stroke-width="3"/><path d="M270 260 Q304 300 270 350 Q290 300 270 260 Z" fill="#C7AC86" opacity="0.5"/><ellipse cx="180" cy="306" rx="8" ry="12" fill="#E0C7A2" stroke="#241E17" stroke-width="2"/><ellipse cx="300" cy="306" rx="8" ry="12" fill="#E0C7A2" stroke="#241E17" stroke-width="2"/><g clip-path="url(#hd)" stroke="#A9865E" stroke-width="0.8" opacity="0.7"><line x1="256" y1="266" x2="248" y2="346"/><line x1="263" y1="266" x2="255" y2="346"/><line x1="270" y1="266" x2="262" y2="346"/><line x1="277" y1="266" x2="269" y2="346"/><line x1="284" y1="266" x2="276" y2="346"/><line x1="291" y1="266" x2="283" y2="346"/><line x1="298" y1="266" x2="290" y2="346"/><line x1="212" y1="346" x2="208" y2="366"/><line x1="225" y1="346" x2="221" y2="366"/><line x1="238" y1="346" x2="234" y2="366"/><line x1="251" y1="346" x2="247" y2="366"/><line x1="264" y1="346" x2="260" y2="366"/><line x1="277" y1="346" x2="273" y2="366"/><line x1="262" y1="270" x2="274" y2="340"/><line x1="271" y1="270" x2="283" y2="340"/><line x1="280" y1="270" x2="292" y2="340"/><line x1="289" y1="270" x2="301" y2="340"/></g><path d="M206 282 q12 -7 24 0" stroke="#241E17" stroke-width="2.4" fill="none"/><path d="M250 282 q12 -7 24 0" stroke="#241E17" stroke-width="2.4" fill="none"/><circle cx="218" cy="294" r="5.5" fill="#241E17"/><circle cx="262" cy="294" r="5.5" fill="#241E17"/><circle cx="220" cy="292" r="1.6" fill="#FFFFFF" opacity="0.6"/><circle cx="264" cy="292" r="1.6" fill="#FFFFFF" opacity="0.6"/><path d="M240 296 l-7 22 l12 0" stroke="#241E17" stroke-width="1.8" fill="none"/><path d="M228 334 q12 6 24 0" stroke="#241E17" stroke-width="1.8" fill="none"/><g stroke="#7C6A4A" stroke-width="0.7" opacity="0.5"><line x1="112" y1="432" x2="86" y2="380"/><line x1="118" y1="432" x2="92" y2="380"/><line x1="124" y1="432" x2="98" y2="380"/><line x1="130" y1="432" x2="104" y2="380"/><line x1="136" y1="432" x2="110" y2="380"/><line x1="142" y1="432" x2="116" y2="380"/><line x1="148" y1="432" x2="122" y2="380"/><line x1="154" y1="432" x2="128" y2="380"/><line x1="160" y1="432" x2="134" y2="380"/><line x1="166" y1="432" x2="140" y2="380"/><line x1="172" y1="432" x2="146" y2="380"/><line x1="178" y1="432" x2="152" y2="380"/><line x1="184" y1="432" x2="158" y2="380"/><line x1="190" y1="432" x2="164" y2="380"/><line x1="368" y1="432" x2="394" y2="380"/><line x1="362" y1="432" x2="388" y2="380"/><line x1="356" y1="432" x2="382" y2="380"/><line x1="350" y1="432" x2="376" y2="380"/><line x1="344" y1="432" x2="370" y2="380"/><line x1="338" y1="432" x2="364" y2="380"/><line x1="332" y1="432" x2="358" y2="380"/><line x1="326" y1="432" x2="352" y2="380"/><line x1="320" y1="432" x2="346" y2="380"/><line x1="314" y1="432" x2="340" y2="380"/><line x1="308" y1="432" x2="334" y2="380"/><line x1="302" y1="432" x2="328" y2="380"/><line x1="296" y1="432" x2="322" y2="380"/><line x1="290" y1="432" x2="316" y2="380"/></g></g><ellipse cx="240" cy="270" rx="150" ry="180" fill="none" stroke="#241E17" stroke-width="5"/><ellipse cx="240" cy="270" rx="137" ry="166" fill="none" stroke="#C8893A" stroke-width="3"/><rect x="60" y="498" width="360" height="54" fill="#F2E9D2" stroke="#241E17" stroke-width="3"/><text x="240" y="535" text-anchor="middle" font-family="Georgia, serif" font-size="30" font-weight="bold" fill="#241E17"></text></svg>